<svg xmlns="http://www.w3.org/2000/svg" width="21" height="13" viewBox="0 0 21 13">
    <g fill="#4ECA45" fill-rule="evenodd">
        <circle cx="11" cy="3" r="3"/>
        <path d="M16 11.693C16 9.683 13.628 8 10.678 8h-.364C7.388 8 5 9.647 5 11.693v.923a.364.364 0 0 0 .115.271c.076.072.18.113.288.113h10.194c.108 0 .212-.04.288-.113a.364.364 0 0 0 .115-.271v-.923z"/>
        <circle cx="17" cy="3" r="2"/>
        <path d="M16.779 6.002h-.287a4.896 4.896 0 0 0-3.368 1.212.35.35 0 0 0-.114.347.37.37 0 0 0 .26.266 4.744 4.744 0 0 1 2.428 1.985.386.386 0 0 0 .33.188h4.597c.207 0 .375-.16.375-.355v-.697c-.03-1.63-1.912-2.946-4.221-2.946z"/>
        <circle cx="4" cy="3" r="2"/>
        <path d="M4.212 6.002H4.5a4.931 4.931 0 0 1 3.392 1.222.354.354 0 0 1 .102.319.368.368 0 0 1-.212.265A4.79 4.79 0 0 0 5.313 9.81a.38.38 0 0 1-.325.19H.377A.368.368 0 0 1 0 9.642v-.703c0-1.61 1.9-2.937 4.212-2.937z"/>
    </g>
</svg>
