<svg xmlns="http://www.w3.org/2000/svg" width="19" height="17" viewBox="0 0 19 17">
    <g fill="#EC784D" fill-rule="evenodd">
        <circle cx="6.5" cy="3.5" r="3.5"/>
        <path fill-rule="nonzero" d="M17.606 9.074V6.606c0-1.436-1.114-2.602-2.492-2.606h-.22c-1.381 0-2.5 1.167-2.5 2.606v2.468c-.857.52-1.387 1.473-1.394 2.506v2.499c.004 1.611 1.256 2.917 2.802 2.921h2.396c1.546-.004 2.798-1.31 2.802-2.921V11.58c-.007-1.033-.537-1.987-1.394-2.506zm-4.475-2.468c0-1.015.789-1.837 1.762-1.837h.221c.97.004 1.755.825 1.755 1.837v2.145a2.722 2.722 0 0 0-.67-.092h-2.397a2.772 2.772 0 0 0-.671.092V6.606zm2.669 6.75c0 .459-.357.83-.796.83-.44 0-.797-.371-.797-.83v-1.053c0-.459.357-.83.797-.83.44 0 .796.371.796.83v1.053z"/>
        <path d="M10.75 8.896c.12.067.206.176.237.304a.452.452 0 0 1-.071.37c-.37.5-.57 1.094-.569 1.703v2.276c0 .12-.05.234-.141.319a.5.5 0 0 1-.341.132H.504C.226 14 0 13.789 0 13.529v-1.084C0 10 2.88 8 6.48 8h.375a8.478 8.478 0 0 1 3.895.896z"/>
    </g>
</svg>
