<svg xmlns="http://www.w3.org/2000/svg" width="20" height="18" viewBox="0 0 20 18">
    <g fill="#5E9BF6" fill-rule="evenodd">
        <path fill-rule="nonzero" d="M3.5 12a3 3 0 1 0 0 6 3 3 0 0 0 0-6zm0 1.299a.747.747 0 1 1 0 1.493.747.747 0 0 1 0-1.493zm1.416 3.052a.104.104 0 0 1-.104.104H2.214a.104.104 0 0 1-.143-.104v-.254c0-.552.61-1.006 1.364-1.006h.091c.753 0 1.37.454 1.37 1.006l.02.254zM16.507 12a3 3 0 1 0-.013 6 3 3 0 0 0 .013-6zm0 1.338a.747.747 0 1 1-.747.746.747.747 0 0 1 .747-.785v.039zm1.409 3.045a.104.104 0 0 1-.104.104h-2.598a.104.104 0 0 1-.104-.104v-.253c0-.552.617-1.007 1.364-1.007h.097c.747 0 1.364.455 1.364 1.007l-.02.253zM10 0a5.5 5.5 0 1 0 5.5 5.493A5.493 5.493 0 0 0 10 0zm0 2.46a1.398 1.398 0 1 1 0 2.795 1.398 1.398 0 0 1 0-2.795zm2.593 5.59a.196.196 0 0 1-.196.19H7.603a.189.189 0 0 1-.189-.19v-.468c0-1.013 1.125-1.844 2.502-1.844h.168c1.398 0 2.509.831 2.509 1.844v.469z"/>
        <path d="M11.11 15.263H9.89v-1.894A.38.38 0 0 0 9.5 13a.38.38 0 0 0-.39.369v1.894H7.89a.38.38 0 0 0-.39.368.38.38 0 0 0 .39.369h3.22a.38.38 0 0 0 .39-.369.38.38 0 0 0-.39-.368z"/>
    </g>
</svg>
