<svg xmlns="http://www.w3.org/2000/svg" width="20" height="19" viewBox="0 0 20 19">
    <g fill="#FFF" fill-rule="evenodd" opacity=".5">
        <path fill-rule="nonzero" d="M10.001 9.5a.825.825 0 0 0 .581-.238l2.177-2.163a.81.81 0 0 0 .178-.889.822.822 0 0 0-.76-.503h-1.355V.815A.818.818 0 0 0 10.001 0a.818.818 0 0 0-.821.815v4.892H7.822a.822.822 0 0 0-.76.503.81.81 0 0 0 .179.889l2.179 2.16c.154.154.363.24.581.241zm.205-2.163l-.205.204-.195-.204h.4z"/>
        <path d="M19.149 13.3c-.47 0-.851.365-.851.814v2.85c0 .225-.19.407-.426.407H2.128a.417.417 0 0 1-.426-.407v-2.85c0-.45-.38-.814-.85-.814-.471 0-.852.365-.852.814v2.85C0 18.09.953 19 2.128 19h15.744c.565 0 1.106-.214 1.505-.596.399-.382.623-.9.623-1.44v-2.85c0-.45-.381-.814-.851-.814z"/>
        <path fill-rule="nonzero" d="M18.66 6.869l-3.401 3.23-.92-.87a.816.816 0 0 0-.855-.16.747.747 0 0 0-.484.687v2.798c0 .412.352.746.786.746h2.946a.787.787 0 0 0 .726-.46.719.719 0 0 0-.17-.814l-.92-.871 3.402-3.23a.721.721 0 0 0 .203-.722.767.767 0 0 0-.556-.528.815.815 0 0 0-.759.194h.002zm-4.089 4.939v-.25l.26.25h-.26zM3.538 13.788c.122.279.407.46.724.462h2.951c.435 0 .787-.335.787-.748V10.7a.748.748 0 0 0-.486-.692.817.817 0 0 0-.858.163l-.918.873-3.41-3.238a.817.817 0 0 0-1.098.014.721.721 0 0 0-.013 1.044L4.624 12.1l-.919.873a.72.72 0 0 0-.167.815zm2.892-1.284v.25h-.27l.27-.25z"/>
    </g>
</svg>
