<svg xmlns="http://www.w3.org/2000/svg" width="21" height="20" viewBox="0 0 21 20">
    <g fill="#FFF" fill-rule="evenodd">
        <path d="M14.897 11.083c-.088.271-.24.542-.438.792l-2.034 2.375c.328.313.831.375 1.247.146.481-.271.7-.792.569-1.271.284.083.612.063.918-.083.547-.292.722-.959.416-1.48.284.084.613.063.897-.083.525-.291.722-.937.415-1.458l-1.99 1.062zM20.913 6.375L17.39.333c-.132-.229-.416-.291-.657-.187L5.25 6.25c-.24.125-.306.396-.175.625l2.537 4.333a.84.84 0 0 0 .679.354.79.79 0 0 0 .612-.291l.766-.896a1.933 1.933 0 0 0-1.028.083.754.754 0 0 0-.263.125c-.066.042-.131.063-.175.104L6.87 8.418c.065-.021.131-.063.197-.084a.97.97 0 0 0 .24-.166c.678-.5.919-1.396.569-2.167-.022-.042-.044-.104-.066-.146 0-.02-.022-.02-.022-.042l7.263-3.854c0 .021.022.042.022.042.022.042.066.083.087.125.482.688 1.422.98 2.232.688a.754.754 0 0 0 .262-.126c.066-.041.131-.062.175-.104l1.335 2.271c-.066.021-.132.063-.197.083a.97.97 0 0 0-.241.167 1.746 1.746 0 0 0-.481 2.313c.022.02.022.041.044.062l-3.544 1.875c.131.23.219.459.262.709L20.76 7a.466.466 0 0 0 .154-.625z"/>
        <path d="M11.528 8.458a2.456 2.456 0 0 1 2.581.208c.022 0 .044-.02.066-.041 1.16-.625 1.597-2.02.94-3.125-.656-1.104-2.121-1.52-3.28-.896-1.16.625-1.598 2.021-.941 3.125.153.292.372.542.634.73zM13.54 9.375c-.612-.48-1.509-.375-2.012.188l-1.925 2.25c-.765.916-2.275.791-2.865-.25l-2.341-4C2.909 8.438 1.53 13.75 1.53 13.75l-1.225.98a.743.743 0 0 0-.218.916l2.187 3.875c.197.333.613.479.962.333.679-.27 1.816-.687 2.844-.833.788-.104 1.772-.834 1.925-1.042.503-.583 5.71-6.666 5.71-6.666.525-.605.437-1.459-.175-1.938z"/>
    </g>
</svg>
