<svg xmlns="http://www.w3.org/2000/svg" width="20" height="20" viewBox="0 0 20 20">
    <g fill="#FFF" fill-rule="evenodd">
        <path fill-rule="nonzero" d="M10 0C4.486 0 0 4.486 0 10s4.486 10 10 10 10-4.486 10-10S15.514 0 10 0zm0 18.36c-4.61 0-8.36-3.75-8.36-8.36 0-4.61 3.75-8.36 8.36-8.36 4.61 0 8.36 3.75 8.36 8.36 0 4.61-3.75 8.36-8.36 8.36z"/>
        <path d="M11.097 10l2.676-2.676a.776.776 0 1 0-1.097-1.097L10 8.903 7.324 6.227a.776.776 0 0 0-1.097 1.097L8.903 10l-2.676 2.676a.776.776 0 0 0 1.097 1.097L10 11.097l2.676 2.676a.774.774 0 0 0 1.097 0 .776.776 0 0 0 0-1.097L11.097 10z"/>
    </g>
</svg>
