<svg xmlns="http://www.w3.org/2000/svg" width="20" height="19" viewBox="0 0 20 19">
    <g fill="#FFF" fill-rule="evenodd">
        <path d="M9.23.73C9.23.33 8.886 0 8.463 0H.769C.346 0 0 .329 0 .73v7.308c0 .402.346.731.77.731h7.692c.423 0 .769-.329.769-.73V.73zM20 .73c0-.401-.346-.73-.77-.73h-7.692c-.423 0-.769.329-.769.73v7.308c0 .402.346.731.77.731h7.692c.423 0 .769-.329.769-.73V.73zM11.538 19h7.693c.423 0 .769-.329.769-.73v-7.308c0-.402-.346-.731-.77-.731h-7.692c-.423 0-.769.329-.769.73v7.308c0 .402.346.731.77.731zM8.462 10.23H.769c-.423 0-.769.33-.769.732v7.307c0 .402.346.731.77.731h7.692c.423 0 .769-.329.769-.73v-7.308c0-.402-.346-.731-.77-.731z"/>
    </g>
</svg>
