<svg xmlns="http://www.w3.org/2000/svg" width="19" height="15" viewBox="0 0 19 15">
    <path fill="#21A6F8" fill-rule="nonzero" d="M0 13.888C.004 14.503.573 15 1.273 15h16.454c.7 0 1.269-.497 1.273-1.112V3.333H0v10.555zM14.476 4.73c0-.31.274-.562.611-.562h1.501c.161 0 .316.06.43.165a.532.532 0 0 1 .172.397v1.375a.532.532 0 0 1-.173.397.629.629 0 0 1-.429.166h-1.475c-.337 0-.61-.252-.61-.563l-.027-1.375zm0 3.326c0-.149.065-.291.18-.395a.63.63 0 0 1 .431-.16h1.501a.63.63 0 0 1 .426.163.533.533 0 0 1 .176.392v1.382a.532.532 0 0 1-.173.398.629.629 0 0 1-.429.165h-1.475c-.337 0-.61-.252-.61-.563l-.027-1.382zM9.952 4.729c0-.31.274-.562.611-.562h1.493c.337 0 .61.252.61.562v1.375c0 .31-.273.563-.61.563h-1.493c-.337 0-.61-.252-.61-.563V4.729zm0 3.326c0-.149.065-.291.18-.395a.63.63 0 0 1 .431-.16h1.493a.63.63 0 0 1 .431.16c.115.104.18.246.18.395v1.382c0 .311-.274.563-.611.563h-1.493c-.337 0-.61-.252-.61-.563V8.055zM6.333 4.729c0-.31.274-.562.611-.562h1.493c.337 0 .61.252.61.562v1.375c0 .31-.273.563-.61.563H6.944c-.337 0-.61-.252-.61-.563V4.729zm0 3.317c0-.146.065-.286.179-.388A.63.63 0 0 1 6.94 7.5h1.482a.63.63 0 0 1 .456.164c.12.112.18.265.168.42v1.361c0 .306-.272.554-.607.554H6.94c-.335 0-.607-.248-.607-.554v-1.4zm.043 3.348c0-.31.27-.56.602-.56h1.468c.332 0 .602.25.602.56v1.378c0 .31-.27.561-.602.561H6.935c-.332 0-.602-.25-.602-.56l.043-1.379zM1.81 4.73a.532.532 0 0 1 .173-.397.629.629 0 0 1 .429-.165h1.5c.338 0 .612.252.612.562v1.375c0 .31-.274.563-.611.563H2.412a.629.629 0 0 1-.43-.166.532.532 0 0 1-.172-.397V4.729zm0 3.326c0-.307.27-.555.602-.555h1.5a.63.63 0 0 1 .432.16c.115.104.18.246.18.395v1.382c0 .311-.274.563-.611.563H2.412a.629.629 0 0 1-.43-.165.532.532 0 0 1-.172-.398V8.055zm.044 3.34c0-.307.27-.557.608-.562h1.445c.34 0 .617.251.617.561v1.378c0 .31-.276.561-.617.561h-1.49a.64.64 0 0 1-.432-.164.528.528 0 0 1-.175-.397l.044-1.378zM17.727 0H16.44v1.22c-.026.145-.174.253-.348.253s-.322-.108-.348-.253V0H3.257v1.22c0 .16-.154.29-.344.29-.19 0-.344-.13-.344-.29V0H1.273C.573 0 .004.478 0 1.07V2.5h19V1.07C18.996.478 18.427 0 17.727 0z"/>
</svg>
