<svg xmlns="http://www.w3.org/2000/svg" width="21" height="19" viewBox="0 0 21 19">
    <g fill="#FFF" fill-rule="evenodd">
        <path fill-rule="nonzero" d="M4.232 10.055H1.177c-.54 0-.954.41-.954.877v6.753c0 .497.445.877.954.877h3.055c.54 0 .954-.41.954-.877v-6.723c0-.497-.413-.907-.954-.907zm-1.368 6.753c-.35 0-.637-.263-.637-.585 0-.321.287-.585.637-.585.35 0 .636.264.636.585 0 .35-.286.585-.636.585z"/>
        <path d="M17.755 12.482h-.032l-7.16 2.28-1.845-1.199 2.1-.526c2.132-.439 2.227-2.894 1.591-2.923-3.532-.117-4.104-.41-5.282 0l-1.336.468c.032.087.032.204.032.292v6.752c0 .146-.032.263-.064.38l4.455.936c.445.087.89.058 1.336-.147l8.718-4.706c.573-.292-.795-1.929-2.513-1.607z"/>
        <path fill-rule="nonzero" d="M15.718 9.53c2.8 0 5.06-2.076 5.06-4.648 0-2.573-2.26-4.648-5.06-4.648S10.66 2.309 10.66 4.882c0 2.572 2.291 4.647 5.06 4.647zm0-4.356c-.763 0-1.368-.556-1.368-1.257 0-.585.445-1.082 1.05-1.228v-.204c0-.176.127-.293.318-.293s.318.117.318.293v.204c.605.146 1.05.614 1.05 1.228 0 .175-.127.292-.318.292-.19 0-.318-.117-.318-.292 0-.38-.318-.672-.732-.672-.413 0-.732.292-.732.672 0 .38.319.672.732.672.764 0 1.368.556 1.368 1.257 0 .585-.445 1.082-1.05 1.228v.204c0 .176-.127.293-.318.293-.19 0-.318-.117-.318-.293v-.204c-.605-.146-1.05-.614-1.05-1.228 0-.175.127-.292.318-.292s.318.117.318.292c0 .38.319.672.732.672.414 0 .732-.292.732-.672 0-.38-.318-.672-.732-.672z"/>
    </g>
</svg>
