<svg xmlns="http://www.w3.org/2000/svg" width="21" height="19" viewBox="0 0 21 19">
    <g fill="#7B65FA" fill-rule="evenodd">
        <path fill-rule="nonzero" d="M18.291 2H.71A.717.717 0 0 0 0 2.724v9.552c0 .4.317.724.709.724H18.29a.693.693 0 0 0 .504-.21.725.725 0 0 0 .205-.514V2.724a.725.725 0 0 0-.205-.514.693.693 0 0 0-.504-.21zm-16.804.796c.266 0 .505.164.605.415a.68.68 0 0 1-.145.73.644.644 0 0 1-.715.139.67.67 0 0 1-.399-.623c0-.37.293-.669.654-.669v.008zm0 9.464a.654.654 0 0 1-.605-.415.68.68 0 0 1 .146-.73.644.644 0 0 1 .715-.14.67.67 0 0 1 .398.624.661.661 0 0 1-.654.653v.008zm14.445-.462H3.076c0-1.002-.795-1.815-1.776-1.815V4.985c.975 0 1.767-.803 1.776-1.799h12.856c.008.996.8 1.799 1.775 1.799v4.974c-.473 0-.927.194-1.26.538-.334.343-.52.81-.515 1.293v.008zm1.557.462a.654.654 0 0 1-.61-.41.68.68 0 0 1 .14-.732.644.644 0 0 1 .716-.143.67.67 0 0 1 .4.624.654.654 0 0 1-.615.653l-.03.008zm0-8.135a.654.654 0 0 1-.61-.407.68.68 0 0 1 .137-.731.644.644 0 0 1 .714-.149.669.669 0 0 1 .406.619c0 .352-.27.643-.616.66l-.03.008z"/>
        <path d="M10.623 5.582H9.8a2.532 2.532 0 0 0-.098-.762h.92c.21 0 .378-.184.378-.41 0-.227-.169-.41-.377-.41H7.377C7.17 4 7 4.183 7 4.41c0 .226.169.41.377.41h1.51c.097.24.146.5.143.762H7.377c-.208 0-.377.183-.377.41 0 .226.169.41.377.41h1.465A3.223 3.223 0 0 1 7.83 7.54a.427.427 0 0 0-.166.32.41.41 0 0 0 .128.328l1.804 1.704a.347.347 0 0 0 .25.107.38.38 0 0 0 .286-.14.444.444 0 0 0-.038-.581L8.638 7.902a3.518 3.518 0 0 0 1.004-1.5h.98c.21 0 .378-.184.378-.41 0-.227-.169-.41-.377-.41z"/>
        <path d="M20.292 0H2.708A.717.717 0 0 0 2 .725v.2h17.537c.391 0 .708.324.708.725V11h.047a.717.717 0 0 0 .708-.725V.709A.716.716 0 0 0 20.292 0zM10.862 18.815l2.077-3.248a.342.342 0 0 0 .006-.38.425.425 0 0 0-.368-.187H8.423a.425.425 0 0 0-.368.187.342.342 0 0 0 .006.38l2.077 3.248A.434.434 0 0 0 10.5 19c.148 0 .286-.07.362-.185z"/>
    </g>
</svg>
