<svg xmlns="http://www.w3.org/2000/svg" width="12" height="12" viewBox="0 0 12 12">
    <path fill="#9A9CB3" fill-rule="nonzero" d="M11.818 10.93L8.859 7.96a4.73 4.73 0 0 0 1.178-3.115C10.037 2.174 7.785 0 5.018 0 2.251 0 0 2.174 0 4.845S2.251 9.69 5.018 9.69a5.088 5.088 0 0 0 2.875-.877l2.981 2.993a.661.661 0 0 0 .472.194c.17 0 .331-.063.453-.176a.617.617 0 0 0 .019-.894zm-6.8-9.666c2.046 0 3.71 1.606 3.71 3.581 0 1.975-1.664 3.581-3.71 3.581-2.045 0-3.709-1.606-3.709-3.581 0-1.975 1.664-3.581 3.71-3.581z"/>
</svg>
