<svg xmlns="http://www.w3.org/2000/svg" width="20" height="20" viewBox="0 0 20 20">
    <g fill="#FFF" fill-rule="evenodd" opacity="1">
        <path d="M12 7.634a.254.254 0 0 1-.15.214.33.33 0 0 1-.29-.001l-.566-.295-.549.293a.335.335 0 0 1-.292.004.255.255 0 0 1-.153-.215v-.967H9V8.57h4V6.667h-1v.967zM5.625 16.428c.007-.175.143-.313.307-.312.58 0 1.068-.504 1.068-1.124v-1.457h-.892c-.655-.005-1.184-.572-1.189-1.272l-.026.023-.01.202c0 .162.035.322.101.469a2.362 2.362 0 0 1-.109 2.125v.628c0 .172-.13.312-.292.312-.16 0-.291-.14-.291-.312v-.718a.33.33 0 0 1 .052-.173c.295-.475.338-1.08.114-1.598a1.84 1.84 0 0 1-.16-.744v-.018l.019-.332a.322.322 0 0 1 .085-.202L5.827 10.4a.793.793 0 0 0 .21-.542.793.793 0 0 0-.21-.541l-.053-.058-3.025 2.56a.28.28 0 0 1-.41-.05.327.327 0 0 1 .047-.44l2.53-2.142V6.667L1.282 9.775c-.184.21-.285.488-.28.775v6.593h4.624v-.715z"/>
        <path d="M11.663 7.353l.337.266v-.952h-1v.942l.32-.253a.268.268 0 0 1 .343-.003z"/>
        <path fill-rule="nonzero" d="M.15 20h7.7c.082 0 .15-.048.15-.108v-1.689c0-.06-.068-.108-.15-.108H.15c-.082 0-.15.049-.15.108v1.69c0 .059.068.107.15.107zm1.263-1.613c.398-.005.762.162.92.423.159.261.08.565-.2.769-.278.203-.702.266-1.07.158-.37-.108-.611-.364-.611-.649-.005-.383.425-.696.96-.7z"/>
        <path d="M16 2.857L13 .952V2.41c0 .245.297.448.686.448H16zM8 4.762h6v1H8zM.462 19.999a.504.504 0 0 0 .488-.268.459.459 0 0 0-.083-.531.517.517 0 0 0-.55-.12.477.477 0 0 0-.317.444.469.469 0 0 0 .462.475z"/>
        <path fill-rule="nonzero" d="M16 9.37V3.724h-2.606c-.709 0-1.268-.56-1.268-1.241V0H6.658a.66.66 0 0 0-.463.177.61.61 0 0 0-.195.44v8.617l.123-.093a.326.326 0 0 1 .42.023l.257.247c.263.253.412.597.411.955 0 .358-.148.702-.412.955L6 12.087v.599c0 .347.296.647.658.647h7.067a3.405 3.405 0 0 1-.087-.772c.005-1.436.951-2.715 2.362-3.19zm-4.687 2.795H8.477a.31.31 0 0 1-.315-.304.31.31 0 0 1 .315-.303h2.836a.31.31 0 0 1 .316.303.31.31 0 0 1-.316.304zm2.15-1.516H8.477a.31.31 0 0 1-.315-.303.31.31 0 0 1 .315-.303h4.986a.31.31 0 0 1 .315.303.31.31 0 0 1-.315.303zm1.005-4.542a.31.31 0 0 1-.319.3h-.266v2.637a.29.29 0 0 1-.085.214.314.314 0 0 1-.218.093H8.42a.314.314 0 0 1-.218-.093.29.29 0 0 1-.085-.214V6.407h-.274a.316.316 0 0 1-.221-.088.292.292 0 0 1-.09-.212V4.69a.32.32 0 0 1 .31-.319h6.307a.326.326 0 0 1 .32.32v1.415z"/>
        <path fill-rule="nonzero" d="M17 9.524c-1.657 0-3 1.279-3 2.857 0 1.578 1.343 2.857 3 2.857s3-1.28 3-2.857c-.005-1.576-1.345-2.852-3-2.857zm0 2.526c.566.002 1.045.399 1.124.932.08.534-.263 1.043-.805 1.195v.193a.322.322 0 0 1-.33.314.322.322 0 0 1-.329-.314v-.193a1.09 1.09 0 0 1-.807-1.04.324.324 0 0 1 .332-.312c.181 0 .329.139.33.312.002.251.214.456.478.46l.007-.001h.006a.471.471 0 0 0 .476-.462.472.472 0 0 0-.482-.457c-.566.002-1.048-.391-1.134-.924-.085-.533.253-1.045.794-1.204v-.157c0-.174.148-.314.33-.314.181 0 .329.14.329.314v.157a1.1 1.1 0 0 1 .817 1.04.31.31 0 0 1-.163.274.342.342 0 0 1-.33 0 .31.31 0 0 1-.162-.273.46.46 0 0 0-.298-.424.5.5 0 0 0-.525.1.443.443 0 0 0-.104.5.483.483 0 0 0 .446.284z"/>
    </g>
</svg>
