<svg xmlns="http://www.w3.org/2000/svg" width="23" height="15" viewBox="0 0 23 15">
    <g fill="#F8C32D" fill-rule="evenodd">
        <path fill-rule="nonzero" d="M20.217 0H.783A.78.78 0 0 0 .23.231.794.794 0 0 0 0 .791V11.21c0 .436.35.79.783.79h14.218a4.935 4.935 0 0 1-.267-1.294H3.4c0-1.093-.879-1.98-1.963-1.98V3.274A1.971 1.971 0 0 0 3.4 1.294h14.2c0 .525.207 1.028.575 1.4.368.37.867.58 1.388.58V5.8c.492.02.978.123 1.437.304V.79c0-.21-.083-.41-.23-.559A.78.78 0 0 0 20.218 0zM1.644 9.76c.4 0 .723.326.723.73 0 .402-.324.729-.723.729a.726.726 0 0 1-.723-.73.724.724 0 0 1 .21-.518.711.711 0 0 1 .513-.211zm0-7.424a.723.723 0 0 1-.675-.446.734.734 0 0 1 .155-.8.718.718 0 0 1 .792-.156.73.73 0 0 1 .442.681.717.717 0 0 1-.714.695v.026zm17.712 0a.723.723 0 0 1-.669-.453.734.734 0 0 1 .161-.795.718.718 0 0 1 .79-.153.73.73 0 0 1 .441.68.717.717 0 0 1-.723.695v.026z"/>
        <path d="M11.53 5.582h-1.027c0-.258-.044-.515-.132-.762h1.158c.26 0 .471-.184.471-.41 0-.227-.21-.41-.47-.41H7.47c-.26 0-.47.183-.47.41 0 .226.21.41.47.41h1.884c.128.238.192.499.188.762H7.471c-.26 0-.471.183-.471.41 0 .226.21.41.47.41h1.828c-.306.46-.731.85-1.243 1.139a.422.422 0 0 0-.198.32c-.01.125.05.247.16.328l2.25 1.713c.087.064.197.099.311.098.134 0 .262-.05.349-.14a.385.385 0 0 0 .139-.29c0-.11-.05-.214-.14-.291L9.044 7.902a3.509 3.509 0 0 0 1.28-1.5h1.206c.26 0 .471-.184.471-.41 0-.227-.21-.41-.47-.41z"/>
        <path fill-rule="nonzero" d="M19 7a4 4 0 1 0 4 4 3.991 3.991 0 0 0-4-4zm1.387 4.694h-2.162a.234.234 0 0 1-.225-.226V9.225a.225.225 0 1 1 .45 0v2.018h1.937a.225.225 0 1 1 0 .45z"/>
    </g>
</svg>
